<svg width="12" height="9" viewBox="0 0 12 9" fill="none" xmlns="http://www.w3.org/2000/svg">
<ellipse cx="1.63636" cy="1.6875" rx="1.63636" ry="1.6875" fill="#61481C"/>
<path d="M9.81813 5.625C9.81813 6.52011 9.41585 7.37855 8.69981 8.01149C7.98376 8.64442 7.01259 9 5.99994 9C4.9873 9 4.01613 8.64442 3.30008 8.01149C2.58403 7.37855 2.18176 6.52011 2.18176 5.625L5.99994 5.625H9.81813Z" fill="#61481C"/>
<path d="M12 1.64877C12 2.55936 11.2674 3.375 10.3637 3.375C9.45992 3.375 8.72729 2.55936 8.72729 1.64877C8.72729 0.738179 9.45992 0 10.3637 0C11.2674 0 12 0.738179 12 1.64877Z" fill="#61481C"/>
</svg>
